<?xml version="1.0" encoding="iso-8859-1"?>
<!-- Generator: Adobe Illustrator 19.0.0, SVG Export Plug-In . SVG Version: 6.00 Build 0)  -->
<svg version="1.1" id="Capa_1" xmlns="http://www.w3.org/2000/svg" xmlns:xlink="http://www.w3.org/1999/xlink" x="0px" y="0px"
	 viewBox="0 0 512.015 512.015" style="enable-background:new 0 0 512.015 512.015;" xml:space="preserve">
<g>
	<path style="fill:#90BAE1;" d="M512.008,52.966v273.655c0.009,7.027-2.778,13.768-7.746,18.737
		c-4.969,4.969-11.71,7.756-18.737,7.746H26.49c-7.027,0.009-13.768-2.778-18.737-7.746c-4.969-4.969-7.756-11.71-7.746-18.737
		l0-273.655H512.008z"/>
	<path style="fill:#41767F;" d="M512.008,26.483v44.138h-512l0-44.138c-0.009-7.027,2.778-13.768,7.746-18.736S19.464-0.009,26.49,0
		h459.034c7.027-0.009,13.768,2.778,18.737,7.746S512.017,19.456,512.008,26.483z"/>
	<path style="fill:#3F5C6C;" d="M335.456,44.138H176.559c-4.875,0-8.828-3.952-8.828-8.828s3.952-8.828,8.828-8.828h158.897
		c4.875,0,8.828,3.952,8.828,8.828S340.331,44.138,335.456,44.138z"/>
	<path style="fill:#E64C3C;" d="M44.145,44.138c-2.348,0.023-4.607-0.899-6.268-2.56c-0.776-0.881-1.431-1.86-1.948-2.914
		c-0.422-1.067-0.63-2.207-0.612-3.354c-0.032-1.158,0.21-2.307,0.707-3.353c0.446-1.07,1.073-2.056,1.853-2.914
		c2.525-2.546,6.341-3.312,9.653-1.937s5.463,4.618,5.442,8.204c-0.014,1.153-0.254,2.293-0.707,3.353
		c-0.448,1.069-1.075,2.055-1.853,2.914c-0.859,0.778-1.845,1.405-2.914,1.854C46.438,43.884,45.299,44.124,44.145,44.138z"/>
	<path style="fill:#F0C419;" d="M79.456,44.138c-2.348,0.023-4.607-0.899-6.268-2.56c-0.776-0.881-1.431-1.86-1.948-2.914
		c-0.422-1.067-0.63-2.207-0.612-3.354c-0.032-1.158,0.21-2.307,0.707-3.353c0.446-1.07,1.073-2.056,1.853-2.914
		c2.525-2.546,6.341-3.312,9.653-1.937c3.312,1.375,5.463,4.618,5.442,8.204c-0.014,1.153-0.254,2.293-0.707,3.353
		c-0.449,1.069-1.075,2.054-1.854,2.914c-0.859,0.778-1.845,1.405-2.914,1.854C81.748,43.884,80.609,44.124,79.456,44.138z"/>
	<path style="fill:#46B29D;" d="M114.766,44.138c-2.348,0.023-4.607-0.899-6.268-2.56c-0.776-0.881-1.431-1.86-1.948-2.914
		c-0.422-1.067-0.63-2.207-0.612-3.354c-0.032-1.158,0.21-2.307,0.707-3.353c0.446-1.07,1.073-2.056,1.853-2.914
		c2.525-2.546,6.341-3.312,9.653-1.937c3.312,1.375,5.463,4.618,5.442,8.204c-0.014,1.153-0.254,2.293-0.707,3.353
		c-0.449,1.069-1.075,2.054-1.854,2.914c-0.859,0.778-1.845,1.405-2.914,1.854C117.058,43.884,115.919,44.124,114.766,44.138z"/>
	<g>
		<polygon style="fill:#F3D55B;" points="79.456,105.931 93.094,134.991 123.594,139.652 101.525,162.269 106.733,194.207 
			79.456,179.129 52.179,194.207 57.387,162.269 35.318,139.652 65.817,134.991 		"/>
		<polygon style="fill:#F3D55B;" points="79.456,220.69 93.094,249.75 123.594,254.411 101.525,277.027 106.733,308.966 
			79.456,293.888 52.179,308.966 57.387,277.027 35.318,254.411 65.817,249.75 		"/>
	</g>
	<g>
		<path style="fill:#E6E7E8;" d="M167.732,123.586h52.966c4.875,0,8.828-3.952,8.828-8.828s-3.952-8.828-8.828-8.828h-52.966
			c-4.875,0-8.828,3.952-8.828,8.828S162.856,123.586,167.732,123.586z"/>
		<path style="fill:#E6E7E8;" d="M167.732,158.897H282.49c4.875,0,8.828-3.952,8.828-8.828s-3.952-8.828-8.828-8.828H167.732
			c-4.875,0-8.828,3.952-8.828,8.828S162.856,158.897,167.732,158.897z"/>
		<path style="fill:#E6E7E8;" d="M317.801,158.897h70.621c4.875,0,8.828-3.952,8.828-8.828s-3.952-8.828-8.828-8.828h-70.621
			c-4.875,0-8.828,3.952-8.828,8.828S312.925,158.897,317.801,158.897z"/>
		<path style="fill:#E6E7E8;" d="M423.732,158.897h35.31c4.875,0,8.828-3.952,8.828-8.828s-3.952-8.828-8.828-8.828h-35.31
			c-4.875,0-8.828,3.952-8.828,8.828S418.856,158.897,423.732,158.897z"/>
		<path style="fill:#E6E7E8;" d="M459.042,176.552H335.456c-4.875,0-8.828,3.952-8.828,8.828s3.952,8.828,8.828,8.828h123.586
			c4.875,0,8.828-3.952,8.828-8.828S463.917,176.552,459.042,176.552z"/>
		<path style="fill:#E6E7E8;" d="M300.145,176.552h-70.621c-4.875,0-8.828,3.952-8.828,8.828s3.952,8.828,8.828,8.828h70.621
			c4.875,0,8.828-3.952,8.828-8.828S305.021,176.552,300.145,176.552z"/>
		<path style="fill:#E6E7E8;" d="M167.732,194.207h26.483c4.875,0,8.828-3.952,8.828-8.828s-3.952-8.828-8.828-8.828h-26.483
			c-4.875,0-8.828,3.952-8.828,8.828S162.856,194.207,167.732,194.207z"/>
		<path style="fill:#E6E7E8;" d="M167.732,247.172h52.966c4.875,0,8.828-3.952,8.828-8.828s-3.952-8.828-8.828-8.828h-52.966
			c-4.875,0-8.828,3.952-8.828,8.828S162.856,247.172,167.732,247.172z"/>
		<path style="fill:#E6E7E8;" d="M282.49,264.828H167.732c-4.875,0-8.828,3.952-8.828,8.828s3.952,8.828,8.828,8.828H282.49
			c4.875,0,8.828-3.952,8.828-8.828S287.366,264.828,282.49,264.828z"/>
		<path style="fill:#E6E7E8;" d="M397.249,273.655c0.001-2.342-0.928-4.588-2.584-6.243c-1.656-1.656-3.902-2.585-6.244-2.584
			h-70.621c-4.875,0-8.828,3.952-8.828,8.828s3.952,8.828,8.828,8.828h70.621c2.342,0.001,4.588-0.928,6.244-2.584
			C396.321,278.243,397.25,275.997,397.249,273.655z"/>
		<path style="fill:#E6E7E8;" d="M459.042,264.828h-35.31c-4.875,0-8.828,3.952-8.828,8.828s3.952,8.828,8.828,8.828h35.31
			c4.875,0,8.828-3.952,8.828-8.828S463.917,264.828,459.042,264.828z"/>
		<path style="fill:#E6E7E8;" d="M459.042,300.138H335.456c-4.875,0-8.828,3.952-8.828,8.828s3.952,8.828,8.828,8.828h123.586
			c4.875,0,8.828-3.952,8.828-8.828S463.917,300.138,459.042,300.138z"/>
		<path style="fill:#E6E7E8;" d="M185.387,300.138h-17.655c-4.875,0-8.828,3.952-8.828,8.828s3.952,8.828,8.828,8.828h17.655
			c4.875,0,8.828-3.952,8.828-8.828S190.262,300.138,185.387,300.138z"/>
	</g>
	<path style="fill:#95A5A5;" d="M312.57,428.932l52.966,52.966c4.487,4.439,6.254,10.94,4.631,17.039
		c-1.623,6.099-6.386,10.863-12.486,12.486c-6.099,1.623-12.6-0.144-17.039-4.631l-52.966-52.966L312.57,428.932z"/>
	<circle style="fill:#41767F;" cx="256.008" cy="397.241" r="79.448"/>
	<circle style="fill:#B0D3F0;" cx="256.008" cy="397.241" r="44.138"/>
</g>
<g>
</g>
<g>
</g>
<g>
</g>
<g>
</g>
<g>
</g>
<g>
</g>
<g>
</g>
<g>
</g>
<g>
</g>
<g>
</g>
<g>
</g>
<g>
</g>
<g>
</g>
<g>
</g>
<g>
</g>
</svg>
